<?xml version="1.0" encoding="UTF-8"?>
<svg width="80px" height="80px" viewBox="0 0 80 80" version="1.1" xmlns="http://www.w3.org/2000/svg">
    <title>Icon-Architecture/64/Arch_Amazon-Comprehend_64</title>
    <g stroke="none" stroke-width="1" fill="none" fill-rule="evenodd">
        <g fill="#01A88D">
            <rect x="0" y="0" width="80" height="80"/>
        </g>
        <!-- Document with magnifying glass -->
        <g fill="#FFFFFF">
            <!-- Document body -->
            <path d="M16,12 L48,12 L56,20 L56,64 L16,64 Z" fill="none" stroke="#FFFFFF" stroke-width="2.5"/>
            <!-- Document fold corner -->
            <path d="M48,12 L48,20 L56,20" fill="none" stroke="#FFFFFF" stroke-width="2.5"/>
            <!-- Text lines on document -->
            <rect x="22" y="28" width="22" height="2.5" rx="1.25"/>
            <rect x="22" y="34" width="18" height="2.5" rx="1.25"/>
            <rect x="22" y="40" width="20" height="2.5" rx="1.25"/>
            <rect x="22" y="46" width="14" height="2.5" rx="1.25"/>
            <rect x="22" y="52" width="16" height="2.5" rx="1.25"/>
        </g>
        <!-- Magnifying glass overlay -->
        <g transform="translate(44, 42)">
            <circle cx="12" cy="12" r="10" fill="none" stroke="#FFFFFF" stroke-width="3"/>
            <circle cx="12" cy="12" r="10" fill="#01A88D" opacity="0.5"/>
            <!-- Glass handle -->
            <line x1="19" y1="19" x2="28" y2="28" stroke="#FFFFFF" stroke-width="3.5" stroke-linecap="round"/>
            <!-- "AI" sparkle inside glass -->
            <circle cx="12" cy="10" r="1.5" fill="#FFFFFF"/>
            <line x1="9" y1="14" x2="15" y2="14" stroke="#FFFFFF" stroke-width="1.5" stroke-linecap="round"/>
        </g>
    </g>
</svg>