<?xml version="1.0" encoding="UTF-8"?>
<svg width="80px" height="80px" viewBox="0 0 80 80" version="1.1" xmlns="http://www.w3.org/2000/svg">
    <title>Icon-Architecture/64/Arch_AWS-IAM_64</title>
    <g stroke="none" stroke-width="1" fill="none" fill-rule="evenodd">
        <g fill="#DD344C">
            <rect x="0" y="0" width="80" height="80"/>
        </g>
        <!-- Person silhouette with gear -->
        <g fill="#FFFFFF">
            <!-- Head -->
            <circle cx="34" cy="22" r="8"/>
            <!-- Body/shoulders -->
            <path d="M18,48 C18,38 24,33 34,33 C44,33 50,38 50,48 L50,52 L18,52 Z"/>
            <!-- Gear icon (top-right) -->
            <g transform="translate(52, 18)">
                <circle cx="10" cy="10" r="5" fill="#DD344C"/>
                <circle cx="10" cy="10" r="3" fill="#FFFFFF"/>
                <!-- Gear teeth -->
                <rect x="8.5" y="0" width="3" height="4" rx="1"/>
                <rect x="8.5" y="16" width="3" height="4" rx="1"/>
                <rect x="0" y="8.5" width="4" height="3" rx="1"/>
                <rect x="16" y="8.5" width="4" height="3" rx="1"/>
                <rect x="2.5" y="2.5" width="3" height="4" rx="1" transform="rotate(45, 4, 4.5)"/>
                <rect x="14.5" y="13.5" width="3" height="4" rx="1" transform="rotate(45, 16, 15.5)"/>
                <rect x="14.5" y="2.5" width="3" height="4" rx="1" transform="rotate(-45, 16, 4.5)"/>
                <rect x="2.5" y="13.5" width="3" height="4" rx="1" transform="rotate(-45, 4, 15.5)"/>
            </g>
            <!-- Key icon (bottom-right) -->
            <g transform="translate(52, 46)">
                <circle cx="6" cy="6" r="5" fill="none" stroke="#FFFFFF" stroke-width="2.5"/>
                <line x1="11" y1="6" x2="22" y2="6" stroke="#FFFFFF" stroke-width="2.5"/>
                <line x1="19" y1="6" x2="19" y2="10" stroke="#FFFFFF" stroke-width="2.5"/>
                <line x1="15" y1="6" x2="15" y2="10" stroke="#FFFFFF" stroke-width="2.5"/>
            </g>
        </g>
    </g>
</svg>