<?xml version="1.0" encoding="UTF-8"?>
<svg width="80px" height="80px" viewBox="0 0 80 80" version="1.1" xmlns="http://www.w3.org/2000/svg">
    <title>Icon-Architecture/64/Arch_Amazon-RDS_64</title>
    <g stroke="none" stroke-width="1" fill="none" fill-rule="evenodd">
        <g fill="#3B48CC">
            <rect x="0" y="0" width="80" height="80"/>
        </g>
        <!-- Database cylinder stack -->
        <g transform="translate(18, 14)" fill="none" stroke="#FFFFFF" stroke-width="2.5">
            <!-- Top ellipse -->
            <ellipse cx="22" cy="6" rx="22" ry="6" fill="#FFFFFF" opacity="0.3"/>
            <ellipse cx="22" cy="6" rx="22" ry="6"/>
            <!-- Side lines -->
            <line x1="0" y1="6" x2="0" y2="46"/>
            <line x1="44" y1="6" x2="44" y2="46"/>
            <!-- Bottom ellipse -->
            <ellipse cx="22" cy="46" rx="22" ry="6"/>
            <!-- Middle ellipses (tiers) -->
            <path d="M0,19 C0,22.3 9.8,25 22,25 C34.2,25 44,22.3 44,19"/>
            <path d="M0,32 C0,35.3 9.8,38 22,38 C34.2,38 44,35.3 44,32"/>
        </g>
        <!-- Lightning bolt accent -->
        <g transform="translate(48, 38)" fill="#FFFFFF">
            <polygon points="10,0 4,12 9,12 3,24 6,24 0,24 6,12 1,12 7,0"/>
        </g>
    </g>
</svg>