<?xml version="1.0" encoding="UTF-8"?>
<svg width="80px" height="80px" viewBox="0 0 80 80" version="1.1" xmlns="http://www.w3.org/2000/svg">
    <title>Icon-Architecture/64/Arch_Amazon-VPC_64</title>
    <g stroke="none" stroke-width="1" fill="none" fill-rule="evenodd">
        <g fill="#8C4FFF">
            <rect x="0" y="0" width="80" height="80"/>
        </g>
        <!-- Cloud outline with network nodes -->
        <g fill="none" stroke="#FFFFFF" stroke-width="2.5">
            <!-- Cloud shape -->
            <path d="M22,50 C14,50 10,44 10,39 C10,34 13,29 18,28 C18,22 23,16 30,16 C35,16 39,18 42,22 C44,20 47,18 51,18 C59,18 64,24 64,31 C68,33 70,37 70,41 C70,47 66,50 60,50 Z" fill="none"/>
            <!-- Network nodes inside cloud -->
            <circle cx="30" cy="35" r="4" fill="#FFFFFF"/>
            <circle cx="50" cy="35" r="4" fill="#FFFFFF"/>
            <circle cx="40" cy="25" r="4" fill="#FFFFFF"/>
            <circle cx="40" cy="45" r="4" fill="#FFFFFF"/>
            <!-- Connection lines -->
            <line x1="33.5" y1="33" x2="36.5" y2="27.5"/>
            <line x1="43.5" y1="27.5" x2="46.5" y2="33"/>
            <line x1="33.5" y1="37" x2="36.5" y2="42.5"/>
            <line x1="43.5" y1="42.5" x2="46.5" y2="37"/>
            <line x1="34" y1="35" x2="46" y2="35"/>
            <line x1="40" y1="29" x2="40" y2="41"/>
        </g>
        <!-- Subnet indicators at bottom -->
        <g fill="#FFFFFF">
            <rect x="16" y="56" width="20" height="3" rx="1.5" opacity="0.6"/>
            <rect x="44" y="56" width="20" height="3" rx="1.5" opacity="0.6"/>
            <rect x="16" y="62" width="20" height="3" rx="1.5" opacity="0.4"/>
            <rect x="44" y="62" width="20" height="3" rx="1.5" opacity="0.4"/>
        </g>
    </g>
</svg>