<svg xmlns="http://www.w3.org/2000/svg" viewBox="0 0 960 720" font-family="Inter, system-ui, -apple-system, sans-serif">
  <defs>
    <!-- Background gradient -->
    <linearGradient id="bg" x1="0%" y1="0%" x2="0%" y2="100%">
      <stop offset="0%" stop-color="#0f172a"/>
      <stop offset="100%" stop-color="#1e293b"/>
    </linearGradient>
    <!-- AWS color category gradients -->
    <linearGradient id="compute" x1="0%" y1="0%" x2="100%" y2="100%">
      <stop offset="0%" stop-color="#cc7a00"/><stop offset="100%" stop-color="#ff9900"/>
    </linearGradient>
    <linearGradient id="network" x1="0%" y1="0%" x2="100%" y2="100%">
      <stop offset="0%" stop-color="#6b3fbf"/><stop offset="100%" stop-color="#8c4fff"/>
    </linearGradient>
    <linearGradient id="database" x1="0%" y1="0%" x2="100%" y2="100%">
      <stop offset="0%" stop-color="#2d3999"/><stop offset="100%" stop-color="#3b48cc"/>
    </linearGradient>
    <linearGradient id="security" x1="0%" y1="0%" x2="100%" y2="100%">
      <stop offset="0%" stop-color="#b02a3e"/><stop offset="100%" stop-color="#dd344c"/>
    </linearGradient>
    <linearGradient id="storage" x1="0%" y1="0%" x2="100%" y2="100%">
      <stop offset="0%" stop-color="#2d6b1a"/><stop offset="100%" stop-color="#3f8624"/>
    </linearGradient>
    <linearGradient id="ml" x1="0%" y1="0%" x2="100%" y2="100%">
      <stop offset="0%" stop-color="#01866f"/><stop offset="100%" stop-color="#01a88d"/>
    </linearGradient>
    <linearGradient id="devtools" x1="0%" y1="0%" x2="100%" y2="100%">
      <stop offset="0%" stop-color="#1b1f23"/><stop offset="100%" stop-color="#24292f"/>
    </linearGradient>
    <!-- Arrow marker -->
    <marker id="arrow" viewBox="0 0 10 6" refX="10" refY="3" markerWidth="8" markerHeight="5" orient="auto-start-reverse">
      <path d="M 0 0 L 10 3 L 0 6 z" fill="#64748b"/>
    </marker>
    <marker id="arrow-sky" viewBox="0 0 10 6" refX="10" refY="3" markerWidth="8" markerHeight="5" orient="auto-start-reverse">
      <path d="M 0 0 L 10 3 L 0 6 z" fill="#38bdf8"/>
    </marker>
    <marker id="arrow-amber" viewBox="0 0 10 6" refX="10" refY="3" markerWidth="8" markerHeight="5" orient="auto-start-reverse">
      <path d="M 0 0 L 10 3 L 0 6 z" fill="#fbbf24"/>
    </marker>
  </defs>

  <!-- Background -->
  <rect width="960" height="720" fill="url(#bg)" rx="12"/>

  <!-- Title -->
  <text x="480" y="32" text-anchor="middle" fill="#e2e8f0" font-size="16" font-weight="700">Architecture — My Personal Tech Blog on AWS EKS</text>
  <text x="480" y="48" text-anchor="middle" fill="#64748b" font-size="10">eu-central-1 (Frankfurt) · 2 Availability Zones · Spot Instances · OIDC + IRSA</text>

  <!-- ========== LAYER 1: DEPLOY FLOW ========== -->
  <rect x="20" y="60" width="920" height="68" rx="8" fill="#1e293b" stroke="#334155" stroke-width="1"/>
  <text x="40" y="78" fill="#94a3b8" font-size="9" font-weight="600" letter-spacing="1">DEPLOY FLOW</text>

  <!-- GitHub Actions -->
  <rect x="40" y="86" width="110" height="32" rx="6" fill="url(#devtools)" stroke="#4b5563" stroke-width="1"/>
  <text x="95" y="106" text-anchor="middle" fill="#fff" font-size="10" font-weight="600">GitHub Actions</text>
  <text x="95" y="116" text-anchor="middle" fill="#9ca3af" font-size="7">3 Jobs · OIDC</text>

  <!-- Arrow -->
  <line x1="152" y1="102" x2="180" y2="102" stroke="#64748b" stroke-width="1.5" marker-end="url(#arrow)"/>
  <text x="166" y="96" text-anchor="middle" fill="#94a3b8" font-size="7">OIDC</text>

  <!-- IAM -->
  <rect x="182" y="86" width="90" height="32" rx="6" fill="url(#security)" stroke="#ef4444" stroke-width="1" opacity="0.9"/>
  <text x="227" y="106" text-anchor="middle" fill="#fff" font-size="10" font-weight="600">IAM Role</text>
  <text x="227" y="116" text-anchor="middle" fill="#fca5a5" font-size="7">2 Policies</text>

  <!-- Arrow -->
  <line x1="274" y1="102" x2="302" y2="102" stroke="#64748b" stroke-width="1.5" marker-end="url(#arrow)"/>
  <text x="288" y="96" text-anchor="middle" fill="#94a3b8" font-size="7">push</text>

  <!-- ECR -->
  <rect x="304" y="86" width="90" height="32" rx="6" fill="url(#compute)" stroke="#f59e0b" stroke-width="1" opacity="0.9"/>
  <text x="349" y="106" text-anchor="middle" fill="#fff" font-size="10" font-weight="600">ECR</text>
  <text x="349" y="116" text-anchor="middle" fill="#fde68a" font-size="7">2 Repos</text>

  <!-- Arrow -->
  <line x1="396" y1="102" x2="424" y2="102" stroke="#64748b" stroke-width="1.5" marker-end="url(#arrow)"/>
  <text x="410" y="96" text-anchor="middle" fill="#94a3b8" font-size="7">pull</text>

  <!-- EKS -->
  <rect x="426" y="86" width="110" height="32" rx="6" fill="url(#compute)" stroke="#f59e0b" stroke-width="1" opacity="0.9"/>
  <text x="481" y="106" text-anchor="middle" fill="#fff" font-size="10" font-weight="600">EKS Cluster</text>
  <text x="481" y="116" text-anchor="middle" fill="#fde68a" font-size="7">12 Manifests · kubectl</text>

  <!-- Deploy details -->
  <text x="570" y="92" fill="#64748b" font-size="8">Test (31 Jest) → Build (Podman) → Deploy (kubectl apply)</text>
  <text x="570" y="104" fill="#64748b" font-size="8">Helm: metrics-server, ALB Controller, kube-prometheus-stack</text>
  <text x="570" y="116" fill="#64748b" font-size="8">Infra values from Terraform state (fully dynamic)</text>

  <!-- ========== LAYER 2: TRAFFIC FLOW ========== -->
  <rect x="20" y="138" width="920" height="380" rx="8" fill="none" stroke="#334155" stroke-width="1"/>
  <text x="40" y="156" fill="#94a3b8" font-size="9" font-weight="600" letter-spacing="1">TRAFFIC FLOW</text>

  <!-- User -->
  <rect x="40" y="164" width="70" height="30" rx="6" fill="#1e293b" stroke="#475569" stroke-width="1"/>
  <text x="75" y="183" text-anchor="middle" fill="#94a3b8" font-size="10" font-weight="600">User</text>

  <!-- Arrow User → Route53 -->
  <line x1="112" y1="179" x2="140" y2="179" stroke="#38bdf8" stroke-width="1.5" marker-end="url(#arrow-sky)"/>
  <text x="126" y="173" text-anchor="middle" fill="#38bdf8" font-size="7">DNS</text>

  <!-- Route 53 -->
  <rect x="142" y="164" width="100" height="30" rx="6" fill="url(#network)" stroke="#a78bfa" stroke-width="1" opacity="0.9"/>
  <text x="192" y="180" text-anchor="middle" fill="#fff" font-size="9" font-weight="600">Route 53</text>
  <text x="192" y="190" text-anchor="middle" fill="#c4b5fd" font-size="6.5">blog.aws.his4irness23.de</text>

  <!-- Arrow Route53 → ALB -->
  <line x1="244" y1="179" x2="272" y2="179" stroke="#38bdf8" stroke-width="1.5" marker-end="url(#arrow-sky)"/>
  <text x="258" y="173" text-anchor="middle" fill="#38bdf8" font-size="7">HTTPS</text>

  <!-- ALB -->
  <rect x="274" y="160" width="100" height="38" rx="6" fill="url(#network)" stroke="#a78bfa" stroke-width="2" opacity="0.9"/>
  <text x="324" y="178" text-anchor="middle" fill="#fff" font-size="10" font-weight="700">ALB</text>
  <text x="324" y="190" text-anchor="middle" fill="#c4b5fd" font-size="7">HTTPS · HTTP→HTTPS</text>
  <text x="324" y="156" text-anchor="middle" fill="#34d399" font-size="7" font-weight="700">Primary Entry</text>

  <!-- ALB info -->
  <text x="395" y="174" fill="#64748b" font-size="8">ACM cert (eu-central-1)</text>
  <text x="395" y="185" fill="#64748b" font-size="8">Target-type: ip (direct to pods)</text>
  <text x="395" y="196" fill="#64748b" font-size="8">Managed by ALB Controller (IRSA)</text>

  <!-- ===== VPC BOX ===== -->
  <rect x="40" y="210" width="900" height="270" rx="8" fill="none" stroke="#8b5cf6" stroke-width="1.5" stroke-dasharray="6,3" opacity="0.5"/>
  <rect x="52" y="204" width="110" height="16" rx="4" fill="#0f172a"/>
  <text x="107" y="215" text-anchor="middle" fill="#a78bfa" font-size="9" font-weight="600">VPC 10.0.0.0/16</text>

  <!-- ===== AZ-a ===== -->
  <rect x="55" y="226" width="430" height="244" rx="6" fill="none" stroke="#38bdf8" stroke-width="1" stroke-dasharray="4,2" opacity="0.4"/>
  <rect x="65" y="220" width="130" height="14" rx="3" fill="#0f172a"/>
  <text x="130" y="230" text-anchor="middle" fill="#38bdf8" font-size="8" font-weight="600">AZ-a (eu-central-1a)</text>

  <!-- Public Subnet AZ-a -->
  <rect x="65" y="240" width="410" height="48" rx="5" fill="#38bdf8" fill-opacity="0.05" stroke="#38bdf8" stroke-width="0.5" stroke-dasharray="3,2" opacity="0.6"/>
  <text x="75" y="253" fill="#38bdf8" font-size="8" font-weight="700">PUBLIC SUBNET 10.0.1.0/24</text>
  <rect x="75" y="258" width="90" height="22" rx="4" fill="#1e293b" stroke="#475569" stroke-width="0.5"/>
  <text x="120" y="273" text-anchor="middle" fill="#94a3b8" font-size="8">ALB Endpoint</text>
  <rect x="175" y="258" width="100" height="22" rx="4" fill="#1e293b" stroke="#475569" stroke-width="0.5"/>
  <text x="225" y="273" text-anchor="middle" fill="#94a3b8" font-size="8">NAT Gateway</text>
  <text x="283" y="273" fill="#64748b" font-size="7">~$0.05/h</text>

  <!-- Private Subnet AZ-a -->
  <rect x="65" y="294" width="410" height="170" rx="5" fill="#34d399" fill-opacity="0.03" stroke="#34d399" stroke-width="0.5" stroke-dasharray="3,2" opacity="0.6"/>
  <text x="75" y="308" fill="#34d399" font-size="8" font-weight="700">PRIVATE SUBNET 10.0.10.0/24</text>

  <!-- EKS Node AZ-a -->
  <rect x="75" y="314" width="390" height="142" rx="5" fill="none" stroke="#f59e0b" stroke-width="1" stroke-dasharray="4,2" opacity="0.4"/>
  <rect x="85" y="308" width="200" height="14" rx="3" fill="#0f172a"/>
  <text x="185" y="318" text-anchor="middle" fill="#f59e0b" font-size="8" font-weight="600">EKS Node (Spot: t3.medium / t3a.medium)</text>

  <!-- Frontend Pod -->
  <rect x="90" y="330" width="170" height="55" rx="6" fill="url(#compute)" stroke="#f59e0b" stroke-width="1" opacity="0.85"/>
  <text x="175" y="348" text-anchor="middle" fill="#fff" font-size="11" font-weight="700">Frontend Pod</text>
  <text x="175" y="360" text-anchor="middle" fill="#fde68a" font-size="8">nginx · Tailwind CSS</text>
  <text x="175" y="372" text-anchor="middle" fill="#fde68a" font-size="7">HPA: 1-3 Replicas (CPU 70%)</text>
  <text x="175" y="382" text-anchor="middle" fill="#fff" font-size="7" opacity="0.6">Reverse Proxy: /api/* → Backend</text>

  <!-- Backend Pod -->
  <rect x="275" y="330" width="180" height="55" rx="6" fill="url(#compute)" stroke="#f59e0b" stroke-width="1" opacity="0.85"/>
  <text x="365" y="348" text-anchor="middle" fill="#fff" font-size="11" font-weight="700">Backend Pod</text>
  <text x="365" y="360" text-anchor="middle" fill="#fde68a" font-size="8">Express + TypeScript</text>
  <text x="365" y="372" text-anchor="middle" fill="#fde68a" font-size="7">HPA: 1-4 Replicas (CPU 70%)</text>
  <text x="365" y="382" text-anchor="middle" fill="#fff" font-size="7" opacity="0.6">IRSA: blog-backend-role</text>

  <!-- RDS -->
  <rect x="130" y="400" width="290" height="46" rx="6" fill="url(#database)" stroke="#6366f1" stroke-width="1.5" opacity="0.9"/>
  <text x="275" y="420" text-anchor="middle" fill="#fff" font-size="11" font-weight="700">RDS PostgreSQL 16</text>
  <text x="275" y="432" text-anchor="middle" fill="#a5b4fc" font-size="8">db.t3.micro · Single-AZ · SSL · 7-day backups</text>
  <text x="275" y="442" text-anchor="middle" fill="#a5b4fc" font-size="7">Posts, Comments, Translations Cache, Audio Refs</text>

  <!-- Arrow Backend → RDS -->
  <line x1="365" y1="387" x2="365" y2="398" stroke="#6366f1" stroke-width="1" marker-end="url(#arrow)"/>
  <text x="375" y="396" fill="#818cf8" font-size="7">SSL</text>

  <!-- ===== AZ-b ===== -->
  <rect x="500" y="226" width="430" height="244" rx="6" fill="none" stroke="#38bdf8" stroke-width="1" stroke-dasharray="4,2" opacity="0.4"/>
  <rect x="510" y="220" width="130" height="14" rx="3" fill="#0f172a"/>
  <text x="575" y="230" text-anchor="middle" fill="#38bdf8" font-size="8" font-weight="600">AZ-b (eu-central-1b)</text>

  <!-- Public Subnet AZ-b -->
  <rect x="510" y="240" width="410" height="48" rx="5" fill="#38bdf8" fill-opacity="0.05" stroke="#38bdf8" stroke-width="0.5" stroke-dasharray="3,2" opacity="0.6"/>
  <text x="520" y="253" fill="#38bdf8" font-size="8" font-weight="700">PUBLIC SUBNET 10.0.2.0/24</text>
  <rect x="520" y="258" width="90" height="22" rx="4" fill="#1e293b" stroke="#475569" stroke-width="0.5"/>
  <text x="565" y="273" text-anchor="middle" fill="#94a3b8" font-size="8">ALB Endpoint</text>

  <!-- Private Subnet AZ-b -->
  <rect x="510" y="294" width="410" height="170" rx="5" fill="#34d399" fill-opacity="0.03" stroke="#34d399" stroke-width="0.5" stroke-dasharray="3,2" opacity="0.6"/>
  <text x="520" y="308" fill="#34d399" font-size="8" font-weight="700">PRIVATE SUBNET 10.0.11.0/24</text>

  <!-- EKS Node AZ-b -->
  <rect x="520" y="314" width="390" height="142" rx="5" fill="none" stroke="#f59e0b" stroke-width="1" stroke-dasharray="4,2" opacity="0.4"/>
  <rect x="530" y="308" width="200" height="14" rx="3" fill="#0f172a"/>
  <text x="630" y="318" text-anchor="middle" fill="#f59e0b" font-size="8" font-weight="600">EKS Node (Spot: t3.medium / t3a.medium)</text>

  <!-- Grafana -->
  <rect x="530" y="330" width="120" height="50" rx="6" fill="#1e293b" stroke="#f46800" stroke-width="1.5" opacity="0.9"/>
  <text x="590" y="350" text-anchor="middle" fill="#fb923c" font-size="10" font-weight="700">Grafana</text>
  <text x="590" y="362" text-anchor="middle" fill="#94a3b8" font-size="7">Helm · IRSA</text>
  <text x="590" y="372" text-anchor="middle" fill="#94a3b8" font-size="7">3 Dashboards</text>

  <!-- Prometheus -->
  <rect x="660" y="330" width="120" height="50" rx="6" fill="#1e293b" stroke="#e6522c" stroke-width="1.5" opacity="0.9"/>
  <text x="720" y="350" text-anchor="middle" fill="#ef4444" font-size="10" font-weight="700">Prometheus</text>
  <text x="720" y="362" text-anchor="middle" fill="#94a3b8" font-size="7">Helm · 15s scrape</text>
  <text x="720" y="372" text-anchor="middle" fill="#94a3b8" font-size="7">7-day retention</text>

  <!-- ALB Controller -->
  <rect x="790" y="330" width="110" height="50" rx="6" fill="url(#compute)" stroke="#f59e0b" stroke-width="1" opacity="0.85"/>
  <text x="845" y="348" text-anchor="middle" fill="#fff" font-size="9" font-weight="700">ALB Controller</text>
  <text x="845" y="360" text-anchor="middle" fill="#fde68a" font-size="7">Helm · IRSA</text>
  <text x="845" y="372" text-anchor="middle" fill="#fde68a" font-size="7">Creates ALB from</text>
  <text x="845" y="380" text-anchor="middle" fill="#fde68a" font-size="7">K8s Ingress</text>

  <!-- Monitoring label -->
  <text x="660" y="402" fill="#64748b" font-size="7" font-style="italic">node-exporter + kube-state-metrics</text>

  <!-- Arrow Grafana → Prometheus -->
  <line x1="651" y1="355" x2="658" y2="355" stroke="#64748b" stroke-width="1"/>

  <!-- ========== LAYER 3: MANAGED SERVICES ========== -->
  <rect x="20" y="528" width="920" height="80" rx="8" fill="#1e293b" stroke="#334155" stroke-width="1"/>
  <text x="40" y="546" fill="#94a3b8" font-size="9" font-weight="600" letter-spacing="1">MANAGED SERVICES (outside VPC)</text>

  <!-- Cognito -->
  <rect x="40" y="554" width="88" height="44" rx="5" fill="url(#security)" stroke="#ef4444" stroke-width="1" opacity="0.85"/>
  <text x="84" y="572" text-anchor="middle" fill="#fff" font-size="9" font-weight="600">Cognito</text>
  <text x="84" y="583" text-anchor="middle" fill="#fca5a5" font-size="7">Admin Auth</text>
  <text x="84" y="593" text-anchor="middle" fill="#fca5a5" font-size="6.5">Hosted UI · JWT</text>

  <!-- Comprehend -->
  <rect x="136" y="554" width="100" height="44" rx="5" fill="url(#ml)" stroke="#2dd4bf" stroke-width="1" opacity="0.85"/>
  <text x="186" y="572" text-anchor="middle" fill="#fff" font-size="9" font-weight="600">Comprehend</text>
  <text x="186" y="583" text-anchor="middle" fill="#99f6e4" font-size="7">Sentiment · Tags</text>
  <text x="186" y="593" text-anchor="middle" fill="#99f6e4" font-size="6.5">IRSA · Auto-flag</text>

  <!-- Translate -->
  <rect x="244" y="554" width="88" height="44" rx="5" fill="url(#ml)" stroke="#2dd4bf" stroke-width="1" opacity="0.85"/>
  <text x="288" y="572" text-anchor="middle" fill="#fff" font-size="9" font-weight="600">Translate</text>
  <text x="288" y="583" text-anchor="middle" fill="#99f6e4" font-size="7">DE ↔ EN</text>
  <text x="288" y="593" text-anchor="middle" fill="#99f6e4" font-size="6.5">IRSA · PG Cache</text>

  <!-- Polly -->
  <rect x="340" y="554" width="80" height="44" rx="5" fill="url(#ml)" stroke="#2dd4bf" stroke-width="1" opacity="0.85"/>
  <text x="380" y="572" text-anchor="middle" fill="#fff" font-size="9" font-weight="600">Polly</text>
  <text x="380" y="583" text-anchor="middle" fill="#99f6e4" font-size="7">TTS Neural</text>
  <text x="380" y="593" text-anchor="middle" fill="#99f6e4" font-size="6.5">IRSA · S3 Cache</text>

  <!-- S3 -->
  <rect x="428" y="554" width="72" height="44" rx="5" fill="url(#storage)" stroke="#4ade80" stroke-width="1" opacity="0.85"/>
  <text x="464" y="572" text-anchor="middle" fill="#fff" font-size="9" font-weight="600">S3</text>
  <text x="464" y="583" text-anchor="middle" fill="#bbf7d0" font-size="7">Audio Cache</text>
  <text x="464" y="593" text-anchor="middle" fill="#bbf7d0" font-size="6.5">IRSA · Versioned</text>

  <!-- CloudFront -->
  <rect x="508" y="554" width="88" height="44" rx="5" fill="url(#network)" stroke="#a78bfa" stroke-width="1" opacity="0.85"/>
  <text x="552" y="572" text-anchor="middle" fill="#fff" font-size="9" font-weight="600">CloudFront</text>
  <text x="552" y="583" text-anchor="middle" fill="#c4b5fd" font-size="7">CDN (prepared)</text>
  <text x="552" y="593" text-anchor="middle" fill="#c4b5fd" font-size="6.5">OAC · ACM us-east-1</text>

  <!-- ACM -->
  <rect x="604" y="554" width="72" height="44" rx="5" fill="url(#network)" stroke="#a78bfa" stroke-width="1" opacity="0.85"/>
  <text x="640" y="572" text-anchor="middle" fill="#fff" font-size="9" font-weight="600">ACM</text>
  <text x="640" y="583" text-anchor="middle" fill="#c4b5fd" font-size="7">2 Certs</text>
  <text x="640" y="593" text-anchor="middle" fill="#c4b5fd" font-size="6.5">$0 · Auto-Renew</text>

  <!-- KMS -->
  <rect x="684" y="554" width="72" height="44" rx="5" fill="url(#security)" stroke="#ef4444" stroke-width="1" opacity="0.85"/>
  <text x="720" y="572" text-anchor="middle" fill="#fff" font-size="9" font-weight="600">KMS</text>
  <text x="720" y="583" text-anchor="middle" fill="#fca5a5" font-size="7">Encryption</text>
  <text x="720" y="593" text-anchor="middle" fill="#fca5a5" font-size="6.5">EKS Secrets</text>

  <!-- CloudWatch -->
  <rect x="764" y="554" width="88" height="44" rx="5" fill="url(#compute)" stroke="#f59e0b" stroke-width="1" opacity="0.85"/>
  <text x="808" y="572" text-anchor="middle" fill="#fff" font-size="9" font-weight="600">CloudWatch</text>
  <text x="808" y="583" text-anchor="middle" fill="#fde68a" font-size="7">ML Metrics</text>
  <text x="808" y="593" text-anchor="middle" fill="#fde68a" font-size="6.5">Grafana Source</text>

  <!-- Telegram -->
  <rect x="860" y="554" width="72" height="44" rx="5" fill="#1e293b" stroke="#0088cc" stroke-width="1.5" opacity="0.9"/>
  <text x="896" y="572" text-anchor="middle" fill="#38bdf8" font-size="9" font-weight="600">Telegram</text>
  <text x="896" y="583" text-anchor="middle" fill="#94a3b8" font-size="7">Bot API</text>
  <text x="896" y="593" text-anchor="middle" fill="#94a3b8" font-size="6.5">Comment Alerts</text>

  <!-- ========== LEGEND ========== -->
  <rect x="20" y="618" width="920" height="90" rx="8" fill="#1e293b" stroke="#334155" stroke-width="1"/>

  <!-- Color legend -->
  <text x="40" y="636" fill="#94a3b8" font-size="9" font-weight="600" letter-spacing="1">LEGEND</text>

  <rect x="40" y="644" width="12" height="12" rx="2" fill="url(#compute)"/>
  <text x="58" y="654" fill="#94a3b8" font-size="8">Compute</text>
  <rect x="120" y="644" width="12" height="12" rx="2" fill="url(#network)"/>
  <text x="138" y="654" fill="#94a3b8" font-size="8">Networking</text>
  <rect x="210" y="644" width="12" height="12" rx="2" fill="url(#database)"/>
  <text x="228" y="654" fill="#94a3b8" font-size="8">Database</text>
  <rect x="295" y="644" width="12" height="12" rx="2" fill="url(#security)"/>
  <text x="313" y="654" fill="#94a3b8" font-size="8">Security</text>
  <rect x="375" y="644" width="12" height="12" rx="2" fill="url(#storage)"/>
  <text x="393" y="654" fill="#94a3b8" font-size="8">Storage</text>
  <rect x="445" y="644" width="12" height="12" rx="2" fill="url(#ml)"/>
  <text x="463" y="654" fill="#94a3b8" font-size="8">ML / AI</text>

  <!-- IRSA info -->
  <text x="40" y="676" fill="#94a3b8" font-size="9" font-weight="600" letter-spacing="1">IRSA (IAM Roles for Service Accounts)</text>
  <text x="40" y="690" fill="#64748b" font-size="8">blog-backend-role → Comprehend, Translate, Polly, S3, CloudWatch</text>
  <text x="40" y="700" fill="#64748b" font-size="8">blog-grafana-role → CloudWatch (metrics)</text>
  <text x="460" y="690" fill="#64748b" font-size="8">blog-alb-controller-role → EC2, ELB (creates ALB from Ingress)</text>
  <text x="460" y="700" fill="#64748b" font-size="8">blog-github-actions-role → ECR, EKS, Terraform (OIDC, no stored keys)</text>

  <!-- Cost summary -->
  <text x="730" y="640" fill="#94a3b8" font-size="9" font-weight="600">COST</text>
  <text x="730" y="654" fill="#34d399" font-size="9" font-weight="600">~$4.80/day</text>
  <text x="800" y="654" fill="#64748b" font-size="8">all services running</text>
  <text x="730" y="668" fill="#34d399" font-size="9" font-weight="600">~$0.50/mo</text>
  <text x="800" y="668" fill="#64748b" font-size="8">after teardown</text>

  <!-- Connection lines: Backend → Managed Services -->
  <line x1="365" y1="387" x2="365" y2="490" stroke="#01a88d" stroke-width="1" stroke-dasharray="3,2" opacity="0.4"/>
  <line x1="365" y1="490" x2="186" y2="490" stroke="#01a88d" stroke-width="1" stroke-dasharray="3,2" opacity="0.4"/>
  <line x1="186" y1="490" x2="186" y2="552" stroke="#01a88d" stroke-width="1" stroke-dasharray="3,2" opacity="0.4"/>
  <line x1="365" y1="490" x2="380" y2="490" stroke="#01a88d" stroke-width="1" stroke-dasharray="3,2" opacity="0.4"/>
  <line x1="380" y1="490" x2="380" y2="552" stroke="#01a88d" stroke-width="1" stroke-dasharray="3,2" opacity="0.4"/>
  <line x1="365" y1="490" x2="288" y2="490" stroke="#01a88d" stroke-width="1" stroke-dasharray="3,2" opacity="0.4"/>
  <line x1="288" y1="490" x2="288" y2="552" stroke="#01a88d" stroke-width="1" stroke-dasharray="3,2" opacity="0.4"/>
  <line x1="365" y1="490" x2="464" y2="490" stroke="#3f8624" stroke-width="1" stroke-dasharray="3,2" opacity="0.4"/>
  <line x1="464" y1="490" x2="464" y2="552" stroke="#3f8624" stroke-width="1" stroke-dasharray="3,2" opacity="0.4"/>

  <!-- Grafana → CloudWatch connection -->
  <line x1="590" y1="382" x2="590" y2="490" stroke="#f59e0b" stroke-width="1" stroke-dasharray="3,2" opacity="0.3"/>
  <line x1="590" y1="490" x2="808" y2="490" stroke="#f59e0b" stroke-width="1" stroke-dasharray="3,2" opacity="0.3"/>
  <line x1="808" y1="490" x2="808" y2="552" stroke="#f59e0b" stroke-width="1" stroke-dasharray="3,2" opacity="0.3"/>
</svg>